<?xml version="1.0" encoding="utf-8"?>
<!-- Generator: Adobe Illustrator 21.0.0, SVG Export Plug-In . SVG Version: 6.00 Build 0)  -->
<svg version="1.1" id="Layer_1" xmlns="http://www.w3.org/2000/svg" xmlns:xlink="http://www.w3.org/1999/xlink" x="0px" y="0px"
	 viewBox="0 0 800 800" style="enable-background:new 0 0 800 800;" xml:space="preserve">
<style type="text/css">
	.st0{fill:url(#SVGID_1_);}
	.st1{fill:#FFFFFF;}
	.st2{fill:url(#SVGID_2_);stroke:#FFFFFF;stroke-width:16;stroke-linejoin:round;stroke-miterlimit:10;}
</style>
<g>
	<linearGradient id="SVGID_1_" gradientUnits="userSpaceOnUse" x1="400" y1="787" x2="400" y2="13">
		<stop  offset="0" style="stop-color:#5C40C6"/>
		<stop  offset="1" style="stop-color:#7C4DFF"/>
	</linearGradient>
	<path class="st0" d="M400,787c-52.2,0-102.9-10.2-150.6-30.4c-46.1-19.5-87.5-47.4-123-82.9s-63.4-76.9-82.9-123
		C23.2,502.9,13,452.2,13,400s10.2-102.9,30.4-150.6c19.5-46.1,47.4-87.5,82.9-123s76.9-63.4,123-82.9C297.1,23.2,347.8,13,400,13
		s102.9,10.2,150.6,30.4c46.1,19.5,87.5,47.4,123,82.9s63.4,76.9,82.9,123C776.8,297.1,787,347.8,787,400s-10.2,102.9-30.4,150.6
		c-19.5,46.1-47.4,87.5-82.9,123s-76.9,63.4-123,82.9C502.9,776.8,452.2,787,400,787z"/>
	<path class="st1" d="M400,21c51.2,0,100.8,10,147.5,29.8C592.6,69.9,633.2,97.2,668,132c34.8,34.8,62.1,75.3,81.2,120.5
		C769,299.2,779,348.8,779,400s-10,100.8-29.8,147.5c-19.1,45.1-46.4,85.7-81.2,120.5c-34.8,34.8-75.3,62.1-120.5,81.2
		C500.8,769,451.2,779,400,779s-100.8-10-147.5-29.8c-45.1-19.1-85.7-46.4-120.5-81.2c-34.8-34.8-62.1-75.3-81.2-120.5
		C31,500.8,21,451.2,21,400s10-100.8,29.8-147.5C69.9,207.4,97.2,166.8,132,132s75.3-62.1,120.5-81.2C299.2,31,348.8,21,400,21
		 M400,5C181.8,5,5,181.8,5,400s176.8,395,395,395s395-176.8,395-395S618.2,5,400,5L400,5z"/>
</g>
<g>
	<linearGradient id="SVGID_2_" gradientUnits="userSpaceOnUse" x1="399.6096" y1="625.8223" x2="399.6096" y2="193.8223">
		<stop  offset="0" style="stop-color:#00796B"/>
		<stop  offset="1" style="stop-color:#009688"/>
	</linearGradient>
	<path class="st2" d="M448.2,625.8H351c-7.6,0-13.1-1.7-16.5-5.1c-3.4-3.4-5.1-8.9-5.1-16.5V309.6h-88.2c-7.6,0-13.1-1.7-16.5-5.1
		c-3.4-3.4-5.1-8.9-5.1-16.5v-72.6c0-7.6,1.7-13.1,5.1-16.5c3.4-3.4,8.9-5.1,16.5-5.1H558c7.6,0,13.1,1.7,16.5,5.1
		c3.4,3.4,5.1,8.9,5.1,16.5V288c0,7.6-1.7,13.1-5.1,16.5c-3.4,3.4-8.9,5.1-16.5,5.1h-88.2v294.6c0,7.6-1.7,13.1-5.1,16.5
		C461.3,624.1,455.8,625.8,448.2,625.8z"/>
</g>
</svg>
